<?xml version="1.0" encoding="UTF-8"?>
<svg xmlns="http://www.w3.org/2000/svg" width="24" height="24" viewBox="0 0 48 48" fill="none">
  <path d="M31.4025 12.667H21.1667C20.5743 12.667 20.0607 13.0385 19.9007 13.602L15.8351 30.0417C15.7217 30.4379 15.8984 30.8567 16.2511 31.0419C16.3628 31.0983 16.4847 31.125 16.6067 31.125H21.1667C21.7591 31.125 22.2727 30.7535 22.4327 30.19L23.4543 26.125H28.8659C32.7073 26.125 35.9835 23.4462 36.6709 19.666L36.9953 17.9275C37.7735 13.6923 34.6343 12.667 31.4025 12.667Z" fill="#009CDE"/>
  <path d="M44.0835 6.03516L44.0742 6H37.5835C36.7751 6 36.0842 6.56484 35.9126 7.3625L32.5051 20.875C32.3984 21.3628 32.6184 21.8375 33.0609 22.0437C33.1834 22.1 33.3167 22.125 33.4501 22.125H36.1759C41.5601 22.125 43.6951 18.4922 44.4917 14.0344L45.3792 7.87969C45.5184 7.1 44.9176 6.3875 44.0835 6.03516Z" fill="#012169"/>
  <path d="M4.74414 22.125H11.2349C12.0433 22.125 12.7341 21.5602 12.9058 20.7625L16.3133 7.25C16.4199 6.76219 16.1999 6.2875 15.7574 6.08125C15.6349 6.025 15.5016 6 15.3683 6H4.50039C3.82289 6 3.29039 6.56953 3.33289 7.2375L3.68039 20.8625C3.71914 21.5625 4.16289 22.125 4.74414 22.125Z" fill="#003087"/>
  <path d="M11.2352 22.125L16.6118 22.1344C17.3649 22.1375 17.9921 21.65 18.0962 21.0141L20.5446 10.7125C20.6902 9.79688 19.9837 9 19.0602 9H14.3681C13.7758 9 13.2621 9.37148 13.1021 9.925L9.03589 26.3647C8.92252 26.7609 9.09921 27.1797 9.45189 27.3649C9.56365 27.4213 9.68552 27.448 9.80739 27.448H14.3674C14.9598 27.448 15.4734 27.0765 15.6334 26.513L16.6552 22.448C16.6552 22.448 16.6524 22.4542 16.6118 22.1344Z" fill="#009CDE"/>
  <path d="M29.9978 9H25.5823C25.1273 9 24.8292 9.46875 25.0011 9.88125L28.9503 19.5094C29.0609 19.7672 29.3153 19.9406 29.5978 19.9406H33.0602C33.5152 19.9406 33.8134 19.4719 33.6415 19.0594L30.6453 9.43125C30.5346 9.17344 30.2803 9 29.9978 9Z" fill="#012169"/>
</svg>